<svg xmlns="http://www.w3.org/2000/svg" width="16.001" height="16" viewBox="0 0 16.001 16">
  <path id="Color_Overlay" data-name="Color Overlay" d="M1779.331,1057a1.333,1.333,0,0,1-1.33-1.331V1051a.666.666,0,1,1,1.332,0l0,4.667,13.335,0,0-13.336H1788a.666.666,0,0,1,0-1.333h4.669a1.334,1.334,0,0,1,1.332,1.331v13.338a1.334,1.334,0,0,1-1.332,1.331Zm7.986-6H1782a.666.666,0,0,1,0-1.333h3.725l-7.529-7.529a.667.667,0,0,1,.943-.942l7.528,7.528V1045a.666.666,0,0,1,1.333,0v5.37c0,.005,0,.01,0,.014s0,0,0,.006v.016a.006.006,0,0,0,0,0,.633.633,0,0,1-.059.205.005.005,0,0,1,0,0,.008.008,0,0,1,0,.005l0,.009a.006.006,0,0,1,0,0,.664.664,0,0,1-.338.311l-.01,0h0l-.01,0-.008,0,0,0a.708.708,0,0,1-.093.025h0l-.014,0h-.005l-.009,0a.721.721,0,0,1-.1.007Z" transform="translate(-1778 -1041)" fill="#bcbcbc"/>
</svg>
