<svg xmlns="http://www.w3.org/2000/svg" width="192.064" height="160.042" viewBox="0 0 192.064 160.042">
  <g id="meter" transform="translate(-1592.999 -733.958)">
    <g id="Vector_Smart_Object62" data-name="Vector Smart Object62" transform="translate(1593 734)">
      <g id="Vector_Smart_Object" data-name="Vector Smart Object" transform="translate(-31.487 -46.467)">
        <g id="Group_261" data-name="Group 261">
          <g id="Group_258" data-name="Group 258">
            <path id="Path_854" data-name="Path 854" d="M198.893,205.567l-9.54-8.452A82.581,82.581,0,1,0,45.432,132.935a81.726,81.726,0,0,0,19.085,62.9L54.8,204.075a95.347,95.347,0,1,1,144.1,1.493Z" fill="#00d9ff"/>
            <path id="Path_855" data-name="Path 855" d="M198.893,205.567l-9.54-8.452A82.581,82.581,0,1,0,45.432,132.935a81.726,81.726,0,0,0,19.085,62.9L54.8,204.075a95.347,95.347,0,1,1,144.1,1.493Z" fill="#f4f5f9"/>
            <g id="Group_257" data-name="Group 257">
              <path id="Path_856" data-name="Path 856" d="M208.225,124.946a82.61,82.61,0,0,0-162.793,7.989,81.726,81.726,0,0,0,19.085,62.9L54.8,204.075a95.323,95.323,0,1,1,166.246-80.309" fill="#f4f5f9"/>
            </g>
          </g>
          <path id="Path_857" data-name="Path 857" d="M138.428,47.745A95.259,95.259,0,0,0,54.8,204.075l9.721-8.243A82.558,82.558,0,0,1,136.965,60.4,83.861,83.861,0,0,1,165.282,69l6.428-11.058A97.686,97.686,0,0,0,138.428,47.745Z" fill="#1e2859"/>
          <g id="Group_260" data-name="Group 260">
            <path id="Path_858" data-name="Path 858" d="M67.04,191.044l1.138,1.468-3.643,3.31L63.4,194.353Z" fill="#d8d8d8"/>
            <path id="Path_859" data-name="Path 859" d="M58.414,180.087l.445.773-3.369,1.951-.444-.774Z" fill="#d8d8d8"/>
            <path id="Path_860" data-name="Path 860" d="M60.16,183.082l.445.773-3.369,1.952-.444-.774Z" fill="#d8d8d8"/>
            <path id="Path_861" data-name="Path 861" d="M64.058,188.959l.525.72-3.139,2.3-.525-.722Z" fill="#d8d8d8"/>
            <path id="Path_862" data-name="Path 862" d="M57.362,175.716l.746,1.7-4.34,2.324-.746-1.7Z" fill="#d8d8d8"/>
            <path id="Path_863" data-name="Path 863" d="M62.226,186.235l.445.773L59.3,188.959l-.444-.774Z" fill="#d8d8d8"/>
            <path id="Path_864" data-name="Path 864" d="M51.657,163.321l.246.857-3.739,1.087-.246-.858Z" fill="#d8d8d8"/>
            <path id="Path_865" data-name="Path 865" d="M52.634,166.686l.246.857-3.738,1.088-.245-.858Z" fill="#d8d8d8"/>
            <path id="Path_866" data-name="Path 866" d="M55.143,173.408l.337.825-3.6,1.483-.336-.826Z" fill="#d8d8d8"/>
            <path id="Path_867" data-name="Path 867" d="M53.883,170.322l.246.857-3.739,1.087-.246-.858Z" fill="#d8d8d8"/>
            <path id="Path_868" data-name="Path 868" d="M49.762,141.293l.018,1.857-4.9.434-.017-1.857Z" fill="#d8d8d8"/>
            <path id="Path_869" data-name="Path 869" d="M51.3,158.766l.482,1.793-4.64,1.647-.482-1.794Z" fill="#d8d8d8"/>
            <path id="Path_870" data-name="Path 870" d="M48.73,145.542l.089.887-3.873.4-.088-.888Z" fill="#d8d8d8"/>
            <path id="Path_871" data-name="Path 871" d="M49.094,148.989l.088.888-3.873.4-.087-.888Z" fill="#d8d8d8"/>
            <path id="Path_872" data-name="Path 872" d="M49.92,155.946l.184.872-3.808.813-.183-.873Z" fill="#d8d8d8"/>
            <path id="Path_873" data-name="Path 873" d="M49.446,152.711l.089.887-3.873.4-.088-.888Z" fill="#d8d8d8"/>
            <path id="Path_874" data-name="Path 874" d="M50.146,127.543l-.122.871-3.808-.518.123-.872Z" fill="#d8d8d8"/>
            <path id="Path_875" data-name="Path 875" d="M49.488,130.918l-.083.864-3.775-.348.084-.865Z" fill="#d8d8d8"/>
            <path id="Path_876" data-name="Path 876" d="M48.771,138.016l-.017.868-3.793-.063.018-.869Z" fill="#d8d8d8"/>
            <path id="Path_877" data-name="Path 877" d="M49.184,134.428l-.086.887-3.877-.363.087-.888Z" fill="#d8d8d8"/>
            <path id="Path_878" data-name="Path 878" d="M52.113,123.363l-.355,1.822-4.892-.559.356-1.823Z" fill="#d8d8d8"/>
            <path id="Path_879" data-name="Path 879" d="M57.872,107.6l-.836,1.658L52.479,107.4l.836-1.659Z" fill="#d8d8d8"/>
            <path id="Path_880" data-name="Path 880" d="M55.241,110.917l-.318.812-3.552-1.375.319-.812Z" fill="#d8d8d8"/>
            <path id="Path_881" data-name="Path 881" d="M54,114.036l-.321.819-3.581-1.385.322-.819Z" fill="#d8d8d8"/>
            <path id="Path_882" data-name="Path 882" d="M51.852,120.2l-.228.839-3.669-.981.229-.84Z" fill="#d8d8d8"/>
            <path id="Path_883" data-name="Path 883" d="M52.938,116.862l-.283.82-3.595-1.265.285-.821Z" fill="#d8d8d8"/>
            <path id="Path_884" data-name="Path 884" d="M64.409,95.288l-.49.745-3.262-2.125.491-.745Z" fill="#d8d8d8"/>
            <path id="Path_885" data-name="Path 885" d="M62.268,98.157l-.49.746-3.262-2.124.491-.745Z" fill="#d8d8d8"/>
            <path id="Path_886" data-name="Path 886" d="M58.612,104.134l-.38.764-3.35-1.75.381-.764Z" fill="#d8d8d8"/>
            <path id="Path_887" data-name="Path 887" d="M60.372,101.263l-.49.745-3.262-2.125.491-.745Z" fill="#d8d8d8"/>
            <path id="Path_888" data-name="Path 888" d="M76.2,82.815l-.688.567-2.488-2.993.689-.567Z" fill="#d8d8d8"/>
            <path id="Path_889" data-name="Path 889" d="M73.816,84.892l-.643.619L70.46,82.719,71.1,82.1Z" fill="#d8d8d8"/>
            <path id="Path_890" data-name="Path 890" d="M69.179,89.494l-.557.65-2.839-2.459.558-.649Z" fill="#d8d8d8"/>
            <path id="Path_891" data-name="Path 891" d="M71.363,87.237l-.62.628L67.984,85.2l.621-.628Z" fill="#d8d8d8"/>
            <path id="Path_892" data-name="Path 892" d="M89.51,73.588l-.78.433-1.9-3.4.781-.432Z" fill="#d8d8d8"/>
            <path id="Path_893" data-name="Path 893" d="M86.7,75.178l-.767.457L83.923,72.3l.768-.456Z" fill="#d8d8d8"/>
            <path id="Path_894" data-name="Path 894" d="M81.423,78.592l-.719.527-2.312-3.132.721-.526Z" fill="#d8d8d8"/>
            <path id="Path_895" data-name="Path 895" d="M84.056,76.884l-.747.488-2.14-3.251.748-.487Z" fill="#d8d8d8"/>
            <path id="Path_896" data-name="Path 896" d="M105.065,67.049l-.848.275L103,63.626l.849-.274Z" fill="#d8d8d8"/>
            <path id="Path_897" data-name="Path 897" d="M101.772,68.136l-.849.275-1.213-3.7.85-.274Z" fill="#d8d8d8"/>
            <path id="Path_898" data-name="Path 898" d="M95.213,70.731,94.4,71.1l-1.6-3.546.815-.364Z" fill="#d8d8d8"/>
            <path id="Path_899" data-name="Path 899" d="M98.258,69.5l-.849.275-1.213-3.7.849-.274Z" fill="#d8d8d8"/>
            <path id="Path_900" data-name="Path 900" d="M123.757,63.769l-.89.061-.277-3.882.891-.06Z" fill="#d8d8d8"/>
            <path id="Path_901" data-name="Path 901" d="M120.609,64.065l-.89.06-.278-3.881.891-.059Z" fill="#d8d8d8"/>
            <path id="Path_902" data-name="Path 902" d="M113.615,64.989l-.878.156-.694-3.829.879-.155Z" fill="#d8d8d8"/>
            <path id="Path_903" data-name="Path 903" d="M116.868,64.538l-.89.061-.277-3.882.891-.06Z" fill="#d8d8d8"/>
            <path id="Path_904" data-name="Path 904" d="M67.984,92.518l-1.152,1.457-4.09-2.739,1.153-1.457Z" fill="#d8d8d8"/>
            <path id="Path_905" data-name="Path 905" d="M79.907,80.813,78.479,82l-3.437-3.523L76.47,77.29Z" fill="#d8d8d8"/>
            <path id="Path_906" data-name="Path 906" d="M93.615,72.495l-1.688.775-2.4-4.3,1.689-.775Z" fill="#d8d8d8"/>
            <path id="Path_907" data-name="Path 907" d="M110.361,66.546l-1.8.451-1.568-4.664,1.8-.451Z" fill="#d8d8d8"/>
            <g id="Group_259" data-name="Group 259">
              <path id="Path_908" data-name="Path 908" d="M187.927,192.118l-1.135,1.48,3.633,3.338,1.135-1.481Z" fill="#d8d8d8"/>
              <path id="Path_909" data-name="Path 909" d="M196.531,181.068l-.444.779,3.36,1.968.443-.78Z" fill="#d8d8d8"/>
              <path id="Path_910" data-name="Path 910" d="M126.22,64.857h1.826V59.832h-1.823Z" fill="#d8d8d8"/>
              <path id="Path_911" data-name="Path 911" d="M194.789,184.088l-.444.78,3.36,1.968.442-.781Z" fill="#d8d8d8"/>
              <path id="Path_912" data-name="Path 912" d="M190.9,190.015l-.524.727,3.131,2.322.523-.728Z" fill="#d8d8d8"/>
              <path id="Path_913" data-name="Path 913" d="M197.58,176.66l-.744,1.715,4.328,2.344.744-1.716Z" fill="#d8d8d8"/>
              <path id="Path_914" data-name="Path 914" d="M192.728,187.268l-.444.779,3.36,1.968.443-.78Z" fill="#d8d8d8"/>
              <path id="Path_915" data-name="Path 915" d="M203.27,164.159l-.246.864,3.729,1.1.245-.865Z" fill="#d8d8d8"/>
              <path id="Path_916" data-name="Path 916" d="M202.3,167.553l-.246.865,3.729,1.1.244-.865Z" fill="#d8d8d8"/>
              <path id="Path_917" data-name="Path 917" d="M199.793,174.332l-.336.832,3.591,1.5.336-.833Z" fill="#d8d8d8"/>
              <path id="Path_918" data-name="Path 918" d="M201.049,171.22l-.246.864,3.729,1.1.245-.865Z" fill="#d8d8d8"/>
              <path id="Path_919" data-name="Path 919" d="M205.16,141.944l-.018,1.872,4.891.438.017-1.873Z" fill="#d8d8d8"/>
              <path id="Path_920" data-name="Path 920" d="M203.626,159.565l-.481,1.808,4.627,1.661.481-1.809Z" fill="#d8d8d8"/>
              <path id="Path_921" data-name="Path 921" d="M206.189,146.229l-.088.895,3.863.4.087-.9Z" fill="#d8d8d8"/>
              <path id="Path_922" data-name="Path 922" d="M205.826,149.705l-.088.9,3.863.4.087-.9Z" fill="#d8d8d8"/>
              <path id="Path_923" data-name="Path 923" d="M205,156.721l-.183.88,3.8.82.182-.881Z" fill="#d8d8d8"/>
              <path id="Path_924" data-name="Path 924" d="M205.475,153.459l-.088.895,3.863.4.087-.9Z" fill="#d8d8d8"/>
              <rect id="Rectangle_81" data-name="Rectangle 81" width="3.833" height="0.887" transform="matrix(0.991, -0.137, 0.137, 0.991, 204.777, 128.077)" fill="#d8d8d8"/>
              <path id="Path_925" data-name="Path 925" d="M205.433,131.481l.083.872,3.765-.351-.084-.872Z" fill="#d8d8d8"/>
              <path id="Path_926" data-name="Path 926" d="M206.148,138.639l.017.876,3.783-.063-.018-.876Z" fill="#d8d8d8"/>
              <rect id="Rectangle_82" data-name="Rectangle 82" width="3.883" height="0.899" transform="matrix(0.995, -0.095, 0.095, 0.995, 205.736, 135.023)" fill="#d8d8d8"/>
              <path id="Path_927" data-name="Path 927" d="M202.815,123.862l.354,1.838,4.879-.564-.355-1.838Z" fill="#d8d8d8"/>
              <path id="Path_928" data-name="Path 928" d="M197.071,107.963l.833,1.672,4.546-1.877-.834-1.673Z" fill="#d8d8d8"/>
              <path id="Path_929" data-name="Path 929" d="M199.695,111.31l.317.819,3.543-1.386-.318-.819Z" fill="#d8d8d8"/>
              <path id="Path_930" data-name="Path 930" d="M200.937,114.455l.32.826,3.571-1.4-.321-.826Z" fill="#d8d8d8"/>
              <rect id="Rectangle_83" data-name="Rectangle 83" width="3.791" height="0.877" transform="matrix(0.966, -0.259, 0.259, 0.966, 203.074, 120.665)" fill="#d8d8d8"/>
              <path id="Path_931" data-name="Path 931" d="M201.992,117.305l.283.827,3.585-1.275-.284-.828Z" fill="#d8d8d8"/>
              <path id="Path_932" data-name="Path 932" d="M190.552,95.548l.488.752,3.253-2.143-.489-.751Z" fill="#d8d8d8"/>
              <path id="Path_933" data-name="Path 933" d="M192.687,98.442l.489.752,3.254-2.142-.49-.751Z" fill="#d8d8d8"/>
              <path id="Path_934" data-name="Path 934" d="M196.333,104.469l.379.771,3.341-1.765-.38-.771Z" fill="#d8d8d8"/>
              <path id="Path_935" data-name="Path 935" d="M194.577,101.574l.488.752,3.253-2.143-.489-.751Z" fill="#d8d8d8"/>
              <path id="Path_936" data-name="Path 936" d="M178.791,82.969l.686.572,2.482-3.019-.687-.572Z" fill="#d8d8d8"/>
              <path id="Path_937" data-name="Path 937" d="M181.17,85.063l.641.624,2.706-2.815-.642-.623Z" fill="#d8d8d8"/>
              <path id="Path_938" data-name="Path 938" d="M185.794,89.7l.555.655,2.831-2.48-.557-.655Z" fill="#d8d8d8"/>
              <rect id="Rectangle_84" data-name="Rectangle 84" width="3.847" height="0.885" transform="matrix(0.716, -0.698, 0.698, 0.716, 183.614, 87.426)" fill="#d8d8d8"/>
              <path id="Path_939" data-name="Path 939" d="M165.517,73.663l.778.436,1.9-3.425-.779-.436Z" fill="#d8d8d8"/>
              <path id="Path_940" data-name="Path 940" d="M168.323,75.267l.765.461,2-3.363-.766-.46Z" fill="#d8d8d8"/>
              <path id="Path_941" data-name="Path 941" d="M173.583,78.71l.718.531,2.306-3.158-.719-.531Z" fill="#d8d8d8"/>
              <path id="Path_942" data-name="Path 942" d="M170.957,76.987l.745.492,2.135-3.279-.746-.491Z" fill="#d8d8d8"/>
              <path id="Path_943" data-name="Path 943" d="M150,67.068l.846.277,1.21-3.729-.847-.276Z" fill="#d8d8d8"/>
              <path id="Path_944" data-name="Path 944" d="M153.287,68.165l.847.277,1.21-3.729-.848-.276Z" fill="#d8d8d8"/>
              <path id="Path_945" data-name="Path 945" d="M159.829,70.783l.812.368,1.6-3.576-.813-.367Z" fill="#d8d8d8"/>
              <path id="Path_946" data-name="Path 946" d="M156.792,69.545l.846.277,1.21-3.729L158,65.816Z" fill="#d8d8d8"/>
              <path id="Path_947" data-name="Path 947" d="M131.05,63.8l.888.061.277-3.915-.888-.06Z" fill="#d8d8d8"/>
              <path id="Path_948" data-name="Path 948" d="M134.5,64.059l.888.061.277-3.914-.888-.059Z" fill="#d8d8d8"/>
              <rect id="Rectangle_85" data-name="Rectangle 85" width="3.923" height="0.89" transform="matrix(0.177, -0.984, 0.984, 0.177, 141.474, 64.991)" fill="#d8d8d8"/>
              <path id="Path_949" data-name="Path 949" d="M138.231,64.537l.888.061.277-3.915-.888-.06Z" fill="#d8d8d8"/>
              <path id="Path_950" data-name="Path 950" d="M186.986,92.754l1.149,1.469,4.08-2.762-1.15-1.469Z" fill="#d8d8d8"/>
              <path id="Path_951" data-name="Path 951" d="M175.094,80.95l1.424,1.2,3.428-3.553-1.425-1.2Z" fill="#d8d8d8"/>
              <path id="Path_952" data-name="Path 952" d="M161.422,72.561l1.684.782L165.5,69.01l-1.685-.781Z" fill="#d8d8d8"/>
              <path id="Path_953" data-name="Path 953" d="M144.721,66.562l1.8.455,1.564-4.7-1.8-.455Z" fill="#d8d8d8"/>
            </g>
          </g>
          <path id="Path_954" data-name="Path 954" d="M202.2,83.2c-.029-.037-.059-.072-.088-.108a89.782,89.782,0,0,0-28.025-23.879c-.3-.169-.6-.332-.907-.5-.155-.083-.306-.17-.461-.252l-.151-.078a95.166,95.166,0,0,0-31.922-10.359q-1.108-.156-2.217-.283c-.73-.084-1.461-.158-2.191-.226a94.717,94.717,0,0,0-67.991,20.22q-1.871,1.482-3.655,3.044t-3.479,3.2a95.413,95.413,0,0,0-7.907,8.627c-.048.059-.094.12-.142.18a68.151,68.151,0,0,0-8.38,12.282,94.93,94.93,0,0,0-11.66,34.4q-.139,1-.256,2a95.319,95.319,0,0,0,.024,22.315q.44,3.678,1.171,7.318.487,2.426,1.1,4.833t1.359,4.791A94.928,94.928,0,0,0,54.8,204.075l9.721-8.243a81.727,81.727,0,0,1-19.085-62.9c.011-.1.025-.19.037-.285A87.788,87.788,0,0,1,55,102.752q1.582-2.89,3.392-5.65.552-.839,1.125-1.665,2.292-3.3,4.915-6.388a83.431,83.431,0,0,1,11.74-11.326q1.621-1.284,3.291-2.48A82.042,82.042,0,0,1,136.965,60.4a83.777,83.777,0,0,1,27.084,7.982c.109.054.219.105.327.16.176.087.351.179.527.267a82.536,82.536,0,0,1,24.451,128.305l9.54,8.452A95.266,95.266,0,0,0,202.2,83.2Z" fill="none" stroke="#fff" stroke-miterlimit="10" stroke-width="1.274"/>
          <text id="_0" data-name="0" transform="matrix(0.999, 0.036, -0.035, 0.999, 69.3, 190.545)" font-size="9" font-family="Heebo-Medium, Heebo" font-weight="500" opacity="0.54"><tspan x="0" y="0">0</tspan></text>
          <text id="_20" data-name="20" transform="matrix(1, -0.023, 0.023, 1, 54.254, 161.87)" font-size="9" font-family="Heebo-Medium, Heebo" font-weight="500" opacity="0.54"><tspan x="0" y="0">20</tspan></text>
          <text id="_40" data-name="40" transform="matrix(1, -0.027, 0.026, 1, 54.253, 128.436)" font-size="9" font-family="Heebo-Medium, Heebo" font-weight="500" opacity="0.54"><tspan x="0" y="0">40</tspan></text>
          <text id="_80" data-name="80" transform="matrix(1, 0.017, -0.016, 1, 89.62, 81.259)" font-size="9" font-family="Heebo-Medium, Heebo" font-weight="500" opacity="0.54"><tspan x="0" y="0">80</tspan></text>
          <text id="_100" data-name="100" transform="matrix(1, -0.009, 0.009, 1, 126.554, 72.723)" font-size="9" font-family="Heebo-Medium, Heebo" font-weight="500" opacity="0.54"><tspan x="-7.679" y="0">100</tspan></text>
          <text id="_140" data-name="140" transform="matrix(1, 0.001, -0.001, 1, 170.871, 100.198)" font-size="9" font-family="Heebo-Medium, Heebo" font-weight="500" opacity="0.54"><tspan x="0" y="0">140</tspan></text>
          <text id="_160" data-name="160" transform="matrix(1, 0.017, -0.017, 1, 185.366, 128.305)" font-size="9" font-family="Heebo-Medium, Heebo" font-weight="500" opacity="0.54"><tspan x="0" y="0">160</tspan></text>
          <text id="_180" data-name="180" transform="matrix(1, 0.014, -0.013, 1, 185.063, 161.732)" font-size="9" font-family="Heebo-Medium, Heebo" font-weight="500" opacity="0.54"><tspan x="0" y="0">180</tspan></text>
          <text id="_200" data-name="200" transform="matrix(1, -0.007, 0.007, 1, 170.07, 191.955)" font-size="9" font-family="Heebo-Medium, Heebo" font-weight="500" opacity="0.54"><tspan x="0" y="0">200</tspan></text>
          <text id="_120" data-name="120" transform="matrix(1, -0.009, 0.009, 1, 147.019, 80.498)" font-size="9" font-family="Heebo-Medium, Heebo" font-weight="500" opacity="0.54"><tspan x="0" y="0">120</tspan></text>
          <text id="_60" data-name="60" transform="matrix(1, -0.009, 0.009, 1, 69.434, 98.104)" font-size="9" font-family="Heebo-Medium, Heebo" font-weight="500" opacity="0.54"><tspan x="0" y="0">60</tspan></text>
        </g>
      </g>
    </g>
    <ellipse id="Ellipse_566_copy" data-name="Ellipse 566 copy" cx="5.8" cy="5.77" rx="5.8" ry="5.77" transform="translate(1751.78 881.62)" fill="#f4f5f8"/>
    <ellipse id="Ellipse_566" data-name="Ellipse 566" cx="5.8" cy="5.77" rx="5.8" ry="5.77" transform="translate(1615.37 881.62)" fill="#1e2859"/>
    <g id="Group_42_copy" data-name="Group 42 copy">
      <path id="pointer_copy" data-name="pointer copy" d="M1713.686,784.518c-8.134,18.039-18.353,46.572-18.353,46.572l-.317.921c-1.525,4.128-4.661,4.879-7.833,3.406a5.311,5.311,0,0,1-2.12-8.029l.425-.871s15.358-26.2,25.724-43.135C1716.338,775.006,1718.124,774.675,1713.686,784.518Z" fill="#1e2859"/>
      <path id="Ellipse_1431" data-name="Ellipse 1431" d="M1691.832,828.009a2,2,0,1,1-2.788-.475A2,2,0,0,1,1691.832,828.009Z" fill="#fff"/>
    </g>
    <text id="_120-2" data-name="120" transform="translate(1691.5 870.421)" font-size="22" font-family="Heebo-Bold, Heebo" font-weight="700"><tspan x="-18.981" y="0">120</tspan></text>
  </g>
</svg>
