<svg xmlns="http://www.w3.org/2000/svg" width="13" height="17.001" viewBox="0 0 13 17.001">
  <g id="Vector_Smart_Object" data-name="Vector Smart Object" transform="translate(-799 -410.999)">
    <g id="Vector_Smart_Object-2" data-name="Vector Smart Object" transform="translate(790.447 406.75)">
      <g id="Group_147" data-name="Group 147">
        <g id="Group_146" data-name="Group 146">
          <path id="Path_267" data-name="Path 267" d="M20.186,21.25a1.338,1.338,0,0,0,1.367-1.307V8.466a1.77,1.77,0,0,0-.484-1.115L18.307,4.712a1.947,1.947,0,0,0-1.165-.462H9.921A1.338,1.338,0,0,0,8.553,5.556V19.944A1.336,1.336,0,0,0,9.919,21.25Zm0-1.964a.672.672,0,0,1-.682.656H10.6a.668.668,0,0,1-.681-.655L9.933,6.213a.673.673,0,0,1,.688-.656h5.8a.671.671,0,0,1,.688.653v.982A1.339,1.339,0,0,0,18.473,8.5h1.042a.671.671,0,0,1,.686.656ZM18.1,13.212a.633.633,0,0,0,0-.925.707.707,0,0,0-.968,0l-2.591,2.484L13.313,13.6a.707.707,0,0,0-.968,0,.633.633,0,0,0,0,.925l1.711,1.635a.707.707,0,0,0,.968,0Z"/>
        </g>
      </g>
    </g>
    <path id="Color_Overlay" data-name="Color Overlay" d="M800.366,428A1.335,1.335,0,0,1,799,426.694V412.305A1.338,1.338,0,0,1,800.368,411h7.222a1.946,1.946,0,0,1,1.165.463l2.761,2.639a1.767,1.767,0,0,1,.483,1.115v11.477A1.338,1.338,0,0,1,810.634,428Zm.7-15.692a.673.673,0,0,0-.689.655l-.012,13.074a.668.668,0,0,0,.68.655h8.9a.671.671,0,0,0,.682-.656l.016-10.129a.671.671,0,0,0-.686-.657H808.92a1.338,1.338,0,0,1-1.367-1.308v-.983a.672.672,0,0,0-.688-.653Zm3.433,10.6-1.71-1.635a.633.633,0,0,1,0-.924.706.706,0,0,1,.967,0l1.231,1.176,2.59-2.484a.707.707,0,0,1,.968,0,.633.633,0,0,1,0,.924l-3.08,2.943a.709.709,0,0,1-.968,0Z" fill="#1e2859"/>
  </g>
</svg>
