<svg xmlns="http://www.w3.org/2000/svg" width="16" height="16" viewBox="0 0 16 16">
  <path id="Color_Overlay" data-name="Color Overlay" d="M803.583,457.989a7.9,7.9,0,0,1-3.189-1.345,8.158,8.158,0,0,1-1.025-.862l0,0-.008-.008a8.014,8.014,0,0,1-2.238-4.336c-.029-.164-.051-.328-.069-.491,0-.011,0-.021,0-.031-.018-.162-.031-.328-.038-.49v-.017a8.036,8.036,0,0,1,1.267-4.712c.006-.01.012-.021.019-.031.054-.086.112-.17.169-.253l.108-.151.028-.034a7.932,7.932,0,0,1,4.4-2.969l.022-.006h0c.2-.05.4-.094.609-.13a7.9,7.9,0,0,1,5.82,1.246l.5-.733c.14-.2.308-.175.373.063l.586,2.128a.362.362,0,0,1-.326.473l-2.182.2c-.245.022-.33-.126-.191-.329l.5-.732a6.681,6.681,0,0,0-7.535.061l-.023.016a6.681,6.681,0,0,0-1.65,1.653,6.781,6.781,0,0,0,2.262,9.824h0c.12.066.242.128.365.186l.018.01a6.582,6.582,0,0,0,1.651.528A.649.649,0,0,1,803.7,458,.631.631,0,0,1,803.583,457.989Zm2.38-.114a.649.649,0,0,1,.253-1.166c.134-.025.268-.054.4-.087a.648.648,0,0,1,.31,1.257c-.158.04-.318.074-.476.1a.65.65,0,0,1-.117.011A.641.641,0,0,1,805.964,457.875Zm2.345-.871a.643.643,0,0,1-.186-.206.65.65,0,0,1,.236-.885c.118-.068.235-.141.348-.217a.64.64,0,0,1,.891.184.65.65,0,0,1-.182.9c-.135.09-.274.176-.415.258a.641.641,0,0,1-.692-.031Zm1.922-1.611-.047-.036a.653.653,0,0,1-.073-.914c.088-.1.175-.212.256-.322a.64.64,0,0,1,.9-.13.651.651,0,0,1,.129.907c-.1.13-.2.26-.305.384a.641.641,0,0,1-.86.11Zm1.414-2.093a.615.615,0,0,1-.142-.076.652.652,0,0,1-.229-.76c.049-.128.094-.259.134-.39a.642.642,0,0,1,.806-.424.649.649,0,0,1,.421.812c-.049.155-.1.311-.16.464a.638.638,0,0,1-.83.374Zm-2.818-.259-4.742-2.47v-5.223a.52.52,0,1,1,1.04,0v4.585l4.18,2.176a.527.527,0,0,1,.223.707.521.521,0,0,1-.463.284A.513.513,0,0,1,808.827,453.04Zm3.514-2.169a.632.632,0,0,1-.356-.118.647.647,0,0,1-.273-.544c0-.136,0-.275,0-.411a.643.643,0,1,1,1.285-.051c.006.163.008.328,0,.491a.646.646,0,0,1-.643.634Zm-.729-2.609a.645.645,0,0,1-.239-.326c-.043-.13-.09-.26-.14-.387a.649.649,0,0,1,.358-.842.642.642,0,0,1,.836.361c.059.151.116.307.167.462a.648.648,0,0,1-.409.818.636.636,0,0,1-.573-.086Z" transform="translate(-797 -442)" fill="#1e2859"/>
</svg>
