<svg xmlns="http://www.w3.org/2000/svg" width="14" height="14" viewBox="0 0 14 14">
  <path id="Color_Overlay" data-name="Color Overlay" d="M307.394,953c-.218,0-.394-.288-.394-.644s.176-.644.394-.644h8.682c.218,0,.394.288.394.644s-.176.644-.394.644Zm0-6.169c-.218,0-.394-.289-.394-.645s.176-.644.394-.644h13.211c.218,0,.394.289.394.644s-.176.645-.394.645Zm0-6.54c-.218,0-.394-.289-.394-.645s.176-.644.394-.644h13.211c.218,0,.394.289.394.644s-.176.645-.394.645Z" transform="translate(-307 -939.001)" fill="#1e2859"/>
</svg>
