<svg xmlns="http://www.w3.org/2000/svg" width="19" height="14" viewBox="0 0 19 14">
  <path id="Color_Overlay" data-name="Color Overlay" d="M817.078,952A2.159,2.159,0,0,1,815,949.773v-9.545A2.16,2.16,0,0,1,817.078,938h14.844A2.16,2.16,0,0,1,834,940.227v9.545A2.159,2.159,0,0,1,831.922,952Zm-.891-2.228a.925.925,0,0,0,.891.955h14.844a.926.926,0,0,0,.891-.955v-7H816.188Zm0-9.545V941.5h16.626v-1.273a.926.926,0,0,0-.891-.955H817.078A.925.925,0,0,0,816.188,940.227Zm2.375,8.591a.616.616,0,0,1-.593-.637v-.636a.616.616,0,0,1,.593-.636h.594a.617.617,0,0,1,.594.636v.636a.617.617,0,0,1-.594.637Z" transform="translate(-815 -938)" fill="#1e2859"/>
</svg>
