<svg xmlns="http://www.w3.org/2000/svg" width="18" height="18" viewBox="0 0 18 18">
  <path id="Color_Overlay" data-name="Color Overlay" d="M853.507,954a.487.487,0,1,1,0-.973h16.986a.487.487,0,1,1,0,.973Zm.887-3.6a.521.521,0,0,1-.507-.608l1.065-4.694a.433.433,0,0,1,.152-.219l8.265-7.954a3.185,3.185,0,0,1,2.281-.924,3.266,3.266,0,0,1,2.281.9,3.1,3.1,0,0,1,.938,2.214,3,3,0,0,1-.938,2.189l-8.29,7.954a.493.493,0,0,1-.254.122L854.5,950.4Zm.659-1.119,3.22-.681-2.51-2.408Zm1.116-4.063,3.118,2.968,7.226-6.908-3.118-2.992Zm7.935-7.637,3.118,3.016a2,2,0,0,0,.634-1.483v-.025a2.163,2.163,0,0,0-2.206-2.116h-.011A2.228,2.228,0,0,0,864.1,937.581Z" transform="translate(-853 -936)" fill="#1e2859"/>
</svg>
