<svg xmlns="http://www.w3.org/2000/svg" width="17" height="14" viewBox="0 0 17 14">
  <path id="Color_Overlay" data-name="Color Overlay" d="M690.594,952a1.679,1.679,0,0,1-1.594-1.75v-10.5a1.679,1.679,0,0,1,1.594-1.75h13.812A1.679,1.679,0,0,1,706,939.75v10.5a1.679,1.679,0,0,1-1.594,1.75Zm-.531-1.75a.559.559,0,0,0,.531.583h13.812a.559.559,0,0,0,.531-.583v-9.805l-7.089,6.746a.5.5,0,0,1-.7,0l-7.089-6.746Zm.328-11.039,7.109,6.766,7.11-6.766a.485.485,0,0,0-.2-.045H690.594A.484.484,0,0,0,690.391,939.212Z" transform="translate(-689 -938.001)" fill="#1e2859"/>
</svg>
