<svg xmlns="http://www.w3.org/2000/svg" width="28" height="19" viewBox="0 0 28 19">
  <path id="Color_Overlay" data-name="Color Overlay" d="M741.061,956h0a1.711,1.711,0,0,1-1.183-.478l-1.4-1.331-1.028,1.106a1.719,1.719,0,0,1-2.467.06l-.237-.232a1.777,1.777,0,0,1-.454-.768,1.714,1.714,0,0,1-2.172-.192l-.237-.232a1.776,1.776,0,0,1-.482-.865,1.707,1.707,0,0,1-.68.141,1.725,1.725,0,0,1-1.2-.492l-.237-.232h0a1.8,1.8,0,0,1-.323-2.144,1.717,1.717,0,0,1-.77-.428l-.236-.231a1.821,1.821,0,0,1-.059-2.527l1.163-1.25-2.453-2.154a1.794,1.794,0,0,1-.167-2.513l2.63-3.032a2.138,2.138,0,0,1,.79-.561,2.451,2.451,0,0,1,.938-.189,2.039,2.039,0,0,1,.824.166l1.445.634a2.872,2.872,0,0,0,1.958,0l1.443-.634a3.224,3.224,0,0,1,1.266-.239,3.1,3.1,0,0,1,1.38.292l.841.431.247-.178a2.7,2.7,0,0,1,1.555-.462,2.484,2.484,0,0,1,1.105.24l2.119,1.056a1.745,1.745,0,0,0,.762.154,1.94,1.94,0,0,0,.995-.248l2.163-1.386a1.809,1.809,0,0,1,.981-.283,1.886,1.886,0,0,1,1.5.734l2.219,2.922a2.143,2.143,0,0,1-.092,2.619l-3.765,4.286.417.4a1.824,1.824,0,0,1,.091,2.528l-.223.246a1.712,1.712,0,0,1-1.047.545,1.835,1.835,0,0,1,.049.4,1.814,1.814,0,0,1-.465,1.217l-.222.246a1.727,1.727,0,0,1-1.279.57,1.7,1.7,0,0,1-.434-.064,1.79,1.79,0,0,1-.445.987l-.222.246a1.719,1.719,0,0,1-2.466.094l-.542-.514a1.78,1.78,0,0,1-.391.727l-.223.247a1.725,1.725,0,0,1-1.275.569Zm-3.765-5.4a1.717,1.717,0,0,1,1.2.491l.237.232a1.8,1.8,0,0,1,.539,1.294,1.828,1.828,0,0,1-.2.808l1.448,1.38a.772.772,0,0,0,.539.216.782.782,0,0,0,.58-.257l.222-.246a.823.823,0,0,0-.014-1.113l-1.663-1.579-.013-.013h0l.646-.716h0l3.32,3.156a.784.784,0,0,0,1.121-.043l.222-.246a.827.827,0,0,0-.032-1.137l-3.327-3.168.648-.715,3.748,3.568a.782.782,0,0,0,1.12-.042l.222-.246a.83.83,0,0,0-.041-1.148l-4.012-3.827.649-.715,3.748,3.568a.783.783,0,0,0,1.12-.041l.223-.246a.831.831,0,0,0-.041-1.148l-2.818-2.682a24.444,24.444,0,0,0-1.913-1.607l-2.435-1.8a1.492,1.492,0,0,0-.861-.249,1.428,1.428,0,0,0-.731.183l-.88.544a1.806,1.806,0,0,1-.95.266,1.88,1.88,0,0,1-1.52-.766l-.194-.269h0a1.784,1.784,0,0,1,.388-2.484l1.471-1.065-.385-.2a2.205,2.205,0,0,0-.953-.189,2.293,2.293,0,0,0-.892.16l-1.443.634a3.789,3.789,0,0,1-2.708,0l-1.444-.634a1.126,1.126,0,0,0-.45-.087,1.535,1.535,0,0,0-.578.117,1.215,1.215,0,0,0-.439.306l-2.629,3.031a.8.8,0,0,0,.074,1.124l2.492,2.188.563-.6a1.718,1.718,0,0,1,2.467-.059l.236.23h0a1.805,1.805,0,0,1,.535,1.238c.049,0,.1-.015.149-.015a1.723,1.723,0,0,1,1.2.492l.237.232a1.807,1.807,0,0,1,.54,1.294,1.84,1.84,0,0,1-.1.592,1.718,1.718,0,0,1,.878.46l.237.231a3.46,3.46,0,0,1,.539,1.3c0,.008,0,.017,0,.025.032,0,.067-.01.1-.01Zm-.58,1.225-1.342,1.442a.83.83,0,0,0,.027,1.149l.237.231a.783.783,0,0,0,1.121-.027l1.342-1.443a.83.83,0,0,0-.026-1.148l-.238-.232a.784.784,0,0,0-1.121.028Zm-2.033-2.072-2.212,2.377a.824.824,0,0,0,.069,1.094l.237.231a.783.783,0,0,0,1.121-.027l2.126-2.284A.829.829,0,0,0,736,950l-.238-.232a.774.774,0,0,0-1.076-.011Zm-1.57-2.562c-.027.032-3.2,3.437-3.2,3.437a.833.833,0,0,0,.026,1.148h0l.237.231a.785.785,0,0,0,1.121-.027l3.178-3.416a.83.83,0,0,0-.027-1.149l-.237-.232a.779.779,0,0,0-1.1.006Zm-2.149-1.926-2.383,2.561a.83.83,0,0,0,.028,1.148l.237.231a.78.78,0,0,0,1.007.071l2.572-2.759a.823.823,0,0,0,.141-.459,1.567,1.567,0,0,0-.245-.589l-.235-.231a.785.785,0,0,0-1.122.028Zm11.939-3.475,2.434,1.8a25.305,25.305,0,0,1,2.005,1.684l1.7,1.622,3.755-4.273a1.1,1.1,0,0,0,.249-.719,1.084,1.084,0,0,0-.2-.648l-2.218-2.923a.951.951,0,0,0-.751-.358.879.879,0,0,0-.477.135l-2.164,1.386a2.837,2.837,0,0,1-1.5.4,2.671,2.671,0,0,1-1.178-.252l-2.119-1.057a1.56,1.56,0,0,0-.689-.141,1.789,1.789,0,0,0-1.005.283l-2.6,1.882a.791.791,0,0,0-.173,1.105h0l.193.268a.938.938,0,0,0,.756.372.878.878,0,0,0,.459-.126l.879-.544a2.337,2.337,0,0,1,1.223-.323A2.413,2.413,0,0,1,742.9,941.794Z" transform="translate(-726 -937.001)" fill="#1e2859"/>
</svg>
