<svg xmlns="http://www.w3.org/2000/svg" width="21.875" height="18.878" viewBox="0 0 21.875 18.878">
  <path id="Color_Overlay" data-name="Color Overlay" d="M786.344,953.938V948.16a2.367,2.367,0,1,0-4.687,0v5.778h-6.641v-9.762l-1.284,1.173-.005,0-.007.007h0a.39.39,0,0,1-.655-.281.381.381,0,0,1,.128-.282l0,0,10.547-9.631,0,0a.385.385,0,0,1,.527,0v0l3.82,3.488v-.894a.388.388,0,0,1,.391-.385h2.491a.387.387,0,0,1,.391.385v3.883l3.454,3.154,0,0a.383.383,0,0,1,.129.282.39.39,0,0,1-.655.281h0l-.008-.007,0,0-1.285-1.173v9.762Zm.781-5.778v5.008H792.2v-9.706l-8.2-7.491-8.2,7.491v9.706h5.078V948.16a3.142,3.142,0,1,1,6.25,0Zm1.742-8.794,1.71,1.562v-2.784h-1.71Z" transform="translate(-773.062 -935.061)" fill="#1e2859"/>
</svg>
