<svg xmlns="http://www.w3.org/2000/svg" width="2.001" height="18" viewBox="0 0 2.001 18">
  <g id="issue" transform="translate(-173 -936)">
    <g id="issue-2" data-name="issue" transform="translate(140 897.429)">
      <g id="Group_447" data-name="Group 447">
        <path id="Path_577" data-name="Path 577" d="M34,51.429a1.171,1.171,0,0,1-1-1.286V39.857a1.032,1.032,0,1,1,2,0V50.143A1.171,1.171,0,0,1,34,51.429Z"/>
        <ellipse id="Ellipse_40" data-name="Ellipse 40" cx="1" cy="1.286" rx="1" ry="1.286" transform="translate(33 54)"/>
      </g>
    </g>
    <path id="Color_Overlay" data-name="Color Overlay" d="M173,952.715A1.032,1.032,0,1,1,174,954,1.17,1.17,0,0,1,173,952.715Zm0-5.143V937.286a1.032,1.032,0,1,1,2,0v10.285a1.032,1.032,0,1,1-2,0Z" fill="#1e2859"/>
  </g>
</svg>
