<svg xmlns="http://www.w3.org/2000/svg" width="16.924" height="9.882" viewBox="0 0 16.924 9.882">
  <path id="Color_Overlay" data-name="Color Overlay" d="M108.768,949.723l-5.411-4.2-.005-.005a.6.6,0,0,1-.057-.049l-.016-.015-.034-.037-.021-.024-.024-.031-.018-.025a.532.532,0,0,1-.032-.054v0l-.007-.016a.341.341,0,0,1-.021-.046c0-.007-.005-.014-.008-.021a.449.449,0,0,1-.014-.046.132.132,0,0,1,0-.018.534.534,0,0,1-.016-.13v-.015c0-.016,0-.033,0-.05a.135.135,0,0,1,0-.018c0-.018.006-.036.01-.054l0-.011a.472.472,0,0,1,.019-.06l.009-.023c.005-.013.011-.026.017-.039l.013-.024.024-.04.012-.019c.013-.018.026-.035.04-.052l.016-.019c.012-.013.023-.025.036-.038l.017-.017a.765.765,0,0,1,.059-.049l5.411-4.2a1.16,1.16,0,0,1,1.353,0,.631.631,0,0,1,0,1.049l-3.778,2.931H120v1.484H106.342l3.778,2.931a.632.632,0,0,1,0,1.05,1.159,1.159,0,0,1-1.353,0Z" transform="translate(-103.077 -940.059)" fill="#1e2859"/>
</svg>
