<svg xmlns="http://www.w3.org/2000/svg" width="18" height="18" viewBox="0 0 18 18">
  <path id="Color_Overlay" data-name="Color Overlay" d="M236.693,951.429h-4.118a1.565,1.565,0,0,1-1.525-1.126,1.429,1.429,0,0,1-.049-.374c0-.027,0-.055,0-.082a1.472,1.472,0,0,1,.549-1.057.711.711,0,0,1,.072-.052,5.865,5.865,0,0,0,1.238-1.417l0,0c.026-.043.052-.086.077-.13l.011-.019c.022-.038.044-.077.066-.115l.014-.028c.02-.036.039-.072.058-.109.006-.012.012-.024.018-.037.017-.033.034-.067.05-.1.007-.015.014-.031.021-.045l.044-.094.019-.046c.014-.031.028-.064.041-.1s.014-.034.02-.051.025-.061.037-.092.012-.033.018-.05c.012-.031.023-.063.034-.094l.016-.047c.011-.033.023-.066.032-.1.005-.015.01-.031.014-.047.01-.033.021-.067.031-.1,0-.015.008-.031.013-.046.009-.034.019-.068.028-.1,0-.016.008-.032.012-.049.008-.033.017-.067.024-.1,0-.017.008-.035.012-.052.007-.032.014-.066.021-.1l.011-.057c.006-.031.012-.064.017-.1s.007-.043.011-.066l.013-.086c0-.023.005-.047.009-.07l.011-.084.005-.058c0-.032.007-.064.01-.1s0-.042,0-.064,0-.06.006-.091,0-.072,0-.108c0-.016,0-.031,0-.048,0-.051,0-.1,0-.156V942a6.155,6.155,0,0,1,6.159-6l.14,0h0l.141,0a6.155,6.155,0,0,1,6.159,6v2.391c0,.052,0,.1,0,.156,0,.016,0,.031,0,.048,0,.036,0,.072,0,.108s0,.061.007.091,0,.042,0,.064.006.064.009.1,0,.039.006.058.006.055.01.082.006.048.009.072l.014.082.011.07c.005.031.012.062.017.094l.011.059c.006.031.014.064.021.1s.007.037.012.055.015.064.023.1c0,.017.008.035.013.053l.027.1.014.05.03.1c.005.016.01.033.015.05l.032.1.016.048.033.092c.006.017.013.035.02.052s.022.058.034.088l.022.055.04.092.022.049c.014.031.028.06.041.09l.022.049.047.094.022.043.052.1.021.038q.03.055.062.111l.014.023.077.13,0,0a5.85,5.85,0,0,0,1.238,1.417.711.711,0,0,1,.072.052,1.474,1.474,0,0,1,.548,1.057c0,.027,0,.055,0,.082a1.375,1.375,0,0,1-.019.229,1.555,1.555,0,0,1-1.556,1.272h-4.118a3.412,3.412,0,0,1-6.614,0ZM240,952.714a2.025,2.025,0,0,0,1.909-1.285h-3.818A2.023,2.023,0,0,0,240,952.714ZM235.05,942v2.391a6.889,6.889,0,0,1-2.31,5.116q-.147.134-.3.259l-.039.03a.211.211,0,0,0-.032.05s0,0,0,0l0,.005a.219.219,0,0,0-.013.072.2.2,0,0,0,.018.083.228.228,0,0,0,.207.131h14.85a.227.227,0,0,0,.216-.156.2.2,0,0,0,0-.131s0,0,0,0,0,0,0,0a.21.21,0,0,0-.032-.05l-.038-.029h0q-.234-.189-.448-.394a6.881,6.881,0,0,1-2.164-4.883c0-.032,0-.065,0-.1V942a4.821,4.821,0,0,0-4.567-4.7.684.684,0,0,1-.16-.006l-.039,0c-.061,0-.122,0-.184,0s-.123,0-.184,0l-.038,0a.688.688,0,0,1-.16.006A4.821,4.821,0,0,0,235.05,942Z" transform="translate(-231 -936)" fill="#1e2859"/>
</svg>
