<svg xmlns="http://www.w3.org/2000/svg" width="21" height="18" viewBox="0 0 21 18">
  <g id="send_offer_letter" data-name="send offer letter" transform="translate(-460 -936)">
    <g id="send_offer_letter-2" data-name="send offer letter" transform="translate(459.913 935.918)">
      <g id="Group_489" data-name="Group 489">
        <path id="Path_637" data-name="Path 637" d="M20.988,5.861,17.947,3.753V.674a.67.67,0,0,0-.579-.592H4.045a.669.669,0,0,0-.579.592V3.729L.3,5.861a.517.517,0,0,0-.217.379v11.25a.7.7,0,0,0,.6.592H20.723c.265,0,.362-.308.362-.592V6.239C21.086,6.1,21.109,5.956,20.988,5.861Zm-.965.426-2.075,1.54V4.89ZM16.983,1.029V8.561L10.707,13.2,4.432,8.561V1.029ZM3.467,4.866V7.85L1.391,6.286ZM1.053,7.258,7.81,12.279,1.053,16.756Zm1.158,9.876,6.42-4.24,1.713,1.279a.585.585,0,0,0,.338.119c.1,0,.144-.047.241-.119l1.786-1.35,6.492,4.31H2.211Zm17.909-.545-6.613-4.358L20.12,7.258Z"/>
      </g>
    </g>
    <path id="Color_Overlay" data-name="Color Overlay" d="M460.6,954a.7.7,0,0,1-.6-.592v-11.25a.519.519,0,0,1,.217-.379l3.162-2.131v-3.055a.668.668,0,0,1,.58-.592h13.323a.669.669,0,0,1,.579.592v3.079l3.042,2.108c.121.094.1.237.1.379v11.25c0,.284-.1.592-.362.592Zm1.521-.949h16.989l-6.493-4.31-1.786,1.35c-.1.071-.145.119-.241.119a.584.584,0,0,1-.338-.119l-1.714-1.279Zm-1.159-.378,6.757-4.476-6.757-5.021Zm12.453-4.523,6.613,4.358v-9.331Zm-9.075-3.671,6.276,4.642,6.276-4.642v-7.531H464.344ZM461.3,942.2l2.075,1.563v-2.984Zm16.556,1.54,2.075-1.54-2.075-1.4Z" fill="#1e2859"/>
  </g>
</svg>
