<svg xmlns="http://www.w3.org/2000/svg" width="19" height="19" viewBox="0 0 19 19">
  <path id="Color_Overlay" data-name="Color Overlay" d="M928.885,954a1.7,1.7,0,0,1-1.731-1.669V950.4h-.423a1.7,1.7,0,0,1-1.731-1.67v-6.68a1.7,1.7,0,0,1,1.731-1.669h.423V936.67A1.7,1.7,0,0,1,928.885,935h7.681a2.949,2.949,0,0,1,2.093.869l2.4,2.439a2.72,2.72,0,0,1,.792,1.914v.159h.423A1.7,1.7,0,0,1,944,942.051v6.68a1.7,1.7,0,0,1-1.731,1.67h-.423v1.93A1.7,1.7,0,0,1,940.115,954Zm-.577-1.669a.567.567,0,0,0,.577.556h11.23a.568.568,0,0,0,.578-.556V950.4H928.308Zm-2.154-10.28v6.68a.568.568,0,0,0,.577.557h15.539a.568.568,0,0,0,.577-.557v-6.68a.568.568,0,0,0-.577-.556H926.731A.567.567,0,0,0,926.154,942.051Zm2.154-5.381v3.712h12.385v-.159a1.632,1.632,0,0,0-.475-1.148l-2.4-2.439a1.767,1.767,0,0,0-1.255-.521h-7.681A.567.567,0,0,0,928.308,936.67Zm-.53,10.873-.008-4.228a.545.545,0,0,1,.168-.4.587.587,0,0,1,.409-.163h1.22a1.752,1.752,0,1,1,0,3.5l-.635,0v1.283a.577.577,0,0,1-1.154,0Zm1.148-3.036c0,.147,0,.4,0,.639l.638,0a.638.638,0,1,0,0-1.273h-.643C928.925,944.117,928.926,944.381,928.926,944.507Zm9.3,2.962v-4.2a.567.567,0,0,1,.577-.556h1.764a.557.557,0,1,1,0,1.113h-1.186v.947h1.047a.557.557,0,1,1,0,1.113h-1.047v1.582a.578.578,0,0,1-1.155,0Zm-4.953.506a.587.587,0,0,1-.406-.162.546.546,0,0,1-.171-.393c0-.014-.008-4.106-.008-4.106a.545.545,0,0,1,.168-.394.587.587,0,0,1,.409-.163h1.205a2.335,2.335,0,0,1,2.295,2.609,2.389,2.389,0,0,1-2.25,2.6c-.344.005-1.2.009-1.239.009Zm.575-1.116c.24,0,.5,0,.647-.006.77-.013,1.116-.756,1.116-1.487,0-.351-.083-1.5-1.141-1.5h-.627C933.848,944.372,933.851,946.374,933.853,946.859Z" transform="translate(-925 -935)" fill="#d43a00"/>
</svg>
