<svg xmlns="http://www.w3.org/2000/svg" width="16" height="18" viewBox="0 0 16 18">
  <path id="Color_Overlay" data-name="Color Overlay" d="M204.37,954l-2.815-.023a.64.64,0,0,1-.586-.419l-.805-2.1a6.355,6.355,0,0,0-3.082,1.251.613.613,0,0,1-.832-.062l-.661-.691a2.16,2.16,0,0,1-.148-2.792l3.335-4.334,0-.6v-.008a11.437,11.437,0,0,1,2.851-7.3l.008-.009c.543-.571.871-.917,1.373-.911s.834.359,1.389.944a11.412,11.412,0,0,1,2.795,7.309v.012l0,.528c.012.013.023.026.034.04l3.336,4.332a2.166,2.166,0,0,1-.05,2.684c-.094.112-.218.247-.339.375-.213.225-.419.427-.433.441a.612.612,0,0,1-.758.087,9.269,9.269,0,0,0-3.263-1.261l-.743,2.075a.694.694,0,0,1-.146.238.623.623,0,0,1-.45.2Zm-2.38-1.361,1.946.016.431-1.2-2.839-.015Zm5.164-2.19a12.279,12.279,0,0,1,2.043.9c.131-.135.265-.28.351-.383a.763.763,0,0,0,.021-.957l-2.393-3.107Zm-10.723-.439a.763.763,0,0,0,.056,1c.083.086.19.2.293.308a8.211,8.211,0,0,1,2.007-.952l-.006-3.4Zm6.1-12.151-.008.009a10.117,10.117,0,0,0-2.478,6.36l.012,5.859,5.821.031.036-5.857a10.1,10.1,0,0,0-2.423-6.369c-.169-.179-.37-.391-.5-.5C202.885,937.492,202.71,937.678,202.536,937.859Z" transform="translate(-195 -936)" fill="#1e2859"/>
</svg>
