<svg xmlns="http://www.w3.org/2000/svg" width="14" height="14" viewBox="0 0 14 14">
  <path id="Color_Overlay" data-name="Color Overlay" d="M799.225,397A1.235,1.235,0,0,1,798,395.775v-11.55A1.235,1.235,0,0,1,799.225,383h9.45a.526.526,0,0,1,.372.154l2.8,2.8a.526.526,0,0,1,.153.372v9.45A1.234,1.234,0,0,1,810.775,397Zm-.175-12.775v11.55a.164.164,0,0,0,.175.175h11.55a.164.164,0,0,0,.175-.175v-9.231l-2.274-2.275v4.156a.527.527,0,0,1-.526.526h-7a.526.526,0,0,1-.525-.526V384.05h-1.4A.165.165,0,0,0,799.05,384.225Zm2.625,3.675h5.95v-3.85h-5.95Zm1.049,4.549A2.275,2.275,0,1,1,805,394.725,2.283,2.283,0,0,1,802.724,392.45Zm1.05,0A1.225,1.225,0,1,0,805,391.225,1.218,1.218,0,0,0,803.775,392.45Z" transform="translate(-797.999 -383)" fill="#1e2859"/>
</svg>
