<svg xmlns="http://www.w3.org/2000/svg" width="18" height="18" viewBox="0 0 18 18">
  <path id="Color_Overlay" data-name="Color Overlay" d="M657.133,954a.393.393,0,0,1-.359-.236l-3.477-8.049-8.046-3.091a.391.391,0,0,1,.014-.735l17.221-5.871a.326.326,0,0,1,.041-.007.56.56,0,0,1,.063-.011.455.455,0,0,1,.069,0c.019,0,.038.005.058.01a.575.575,0,0,1,.065.026.231.231,0,0,1,.034.014.094.094,0,0,1,.018.015.371.371,0,0,1,.05.043.38.38,0,0,1,.044.049c.005.007.013.012.016.019a.282.282,0,0,1,.014.034.5.5,0,0,1,.026.064.339.339,0,0,1,.012.06.386.386,0,0,1,0,.065.394.394,0,0,1-.009.065c0,.013,0,.025-.005.038l-5.479,17.221a.393.393,0,0,1-.354.273Zm-3.077-8.5,3.021,6.995,4.675-14.691Zm-7.516-3.218,6.954,2.672,7.651-7.651Zm2.88,11.606a.391.391,0,0,1,0-.554l2.74-2.74a.391.391,0,0,1,.554.553l-2.74,2.741a.392.392,0,0,1-.553,0Zm-4.3,0a.391.391,0,0,1,0-.554l5.479-5.48a.391.391,0,1,1,.553.554l-5.479,5.48a.392.392,0,0,1-.553,0Zm0-4.306a.391.391,0,0,1,0-.554l2.74-2.74a.391.391,0,0,1,.554.553l-2.74,2.74a.392.392,0,0,1-.553,0Z" transform="translate(-645 -936)" fill="#1e2859"/>
</svg>
