<svg xmlns="http://www.w3.org/2000/svg" width="13.001" height="18" viewBox="0 0 13.001 18">
  <path id="Color_Overlay" data-name="Color Overlay" d="M142.562,954A2.7,2.7,0,0,1,140,951.188V938.813A2.7,2.7,0,0,1,142.562,936h7.876A2.7,2.7,0,0,1,153,938.813v12.375A2.7,2.7,0,0,1,150.438,954Zm-1.281-15.187v12.374a1.349,1.349,0,0,0,1.281,1.406h7.876a1.349,1.349,0,0,0,1.281-1.4V938.813a1.35,1.35,0,0,0-1.281-1.407h-7.876A1.35,1.35,0,0,0,141.281,938.813Zm2.167,11.651-.016-.018-.687-.769a.753.753,0,0,1,.01-.995.6.6,0,0,1,.905.01l.546.613,1.384-1.84a.6.6,0,0,1,.9-.094.751.751,0,0,1,.086.99l-1.495,1.986a1.089,1.089,0,0,1-.793.45l-.074,0A1.07,1.07,0,0,1,143.448,950.463Zm4.462.055a.706.706,0,0,1,0-1.4h1.89a.705.705,0,0,1,0,1.4Zm-4.463-4.308c0-.005-.011-.011-.015-.017l-.688-.77a.753.753,0,0,1,.01-.995.6.6,0,0,1,.905.01l.547.613,1.384-1.839a.6.6,0,0,1,.9-.094.748.748,0,0,1,.086.989l-1.495,1.986a1.092,1.092,0,0,1-.792.451.686.686,0,0,1-.074,0A1.068,1.068,0,0,1,143.447,946.21Zm4.463.055a.706.706,0,0,1,0-1.406h1.89a.706.706,0,0,1,0,1.406Zm-4.462-4.376-.018-.019-.687-.775a.753.753,0,0,1,.012-.994.6.6,0,0,1,.906.013l.545.615,1.384-1.838a.6.6,0,0,1,.9-.094.751.751,0,0,1,.086.99l-1.495,1.986a1.088,1.088,0,0,1-.793.449.654.654,0,0,1-.074,0A1.067,1.067,0,0,1,143.448,941.889Zm4.462.051a.706.706,0,0,1,0-1.4h1.89a.705.705,0,0,1,0,1.4Z" transform="translate(-139.999 -936)" fill="#1e2859"/>
</svg>
