<svg xmlns="http://www.w3.org/2000/svg" width="15.999" height="18" viewBox="0 0 15.999 18">
  <path id="Color_Overlay" data-name="Color Overlay" d="M899.774,954h-5.553a2.8,2.8,0,0,1-2.8-2.644l-.627-11.28h-1.149a.646.646,0,1,1,0-1.292h4.168v-1.062A1.724,1.724,0,0,1,895.54,936h2.914a1.724,1.724,0,0,1,1.725,1.723v1.062h4.174a.646.646,0,1,1,0,1.292H903.2l-.627,11.28a2.8,2.8,0,0,1-2.8,2.644Zm-7.063-2.714a1.508,1.508,0,0,0,1.508,1.424h5.552a1.509,1.509,0,0,0,1.509-1.424l.623-11.21H892.09Zm2.4-13.564,0,1.062h3.778v-1.062a.431.431,0,0,0-.432-.43h-2.912A.43.43,0,0,0,895.11,937.723Zm3.014,12.229v-7.115h1.293v7.115Zm-3.549,0v-7.115h1.293v7.115Z" transform="translate(-889 -936)" fill="#1e2859"/>
</svg>
