<svg xmlns="http://www.w3.org/2000/svg" width="15.999" height="16" viewBox="0 0 15.999 16">
  <path id="Color_Overlay" data-name="Color Overlay" d="M618.222,953a1.471,1.471,0,0,1-1.408-1.061l-.2-.685a10.415,10.415,0,0,0-1.891-3.66,1.573,1.573,0,0,0-1.235-.594h-3.241A1.252,1.252,0,0,1,609,945.749v-7.5A1.252,1.252,0,0,1,610.251,937h2.489a1.255,1.255,0,0,1,1.145.744l1.068-.534a2.013,2.013,0,0,1,.894-.211h6.064a1.515,1.515,0,0,1,1.312.761l.565.987A9.2,9.2,0,0,1,625,943.307V945a2,2,0,0,1-2,2l-3.765,0a10.615,10.615,0,0,1,.763,3.96v.58A1.465,1.465,0,0,1,618.533,953Zm-2.821-14.9-1.409.7v6.94a1.264,1.264,0,0,1-.035.293,2.566,2.566,0,0,1,1.551.926,11.414,11.414,0,0,1,2.072,4.01l.2.686a.466.466,0,0,0,.445.336h.311a.463.463,0,0,0,.463-.464v-.58a9.608,9.608,0,0,0-.691-3.588,1,1,0,0,1,.927-1.369H623a1,1,0,0,0,1-1v-1.692a8.193,8.193,0,0,0-1.08-4.062l-.564-.988a.513.513,0,0,0-.444-.257h-6.064A1.014,1.014,0,0,0,615.4,938.105Zm-5.4.146v7.5a.251.251,0,0,0,.25.251h2.489a.251.251,0,0,0,.251-.251v-7.5a.252.252,0,0,0-.251-.251h-2.489A.252.252,0,0,0,610,938.251Z" transform="translate(-609 -937)" fill="#1e2859"/>
</svg>
