<svg xmlns="http://www.w3.org/2000/svg" width="17" height="18" viewBox="0 0 17 18">
  <path id="Color_Overlay" data-name="Color Overlay" d="M423.655,954a.647.647,0,0,1-.655-.645v-2.18a2.161,2.161,0,0,1,.807-1.69,26.084,26.084,0,0,1,4.435-2.846v-2.447a2.069,2.069,0,0,1-.649-1.5v-3.179A3.538,3.538,0,0,1,431.155,936h.7a3.539,3.539,0,0,1,3.561,3.512v3.179a2.037,2.037,0,0,1-.655,1.5v2.447a26.366,26.366,0,0,1,4.436,2.846,2.161,2.161,0,0,1,.807,1.69v2.18a.648.648,0,0,1-.655.645Zm5.255-14.482V942.7a.784.784,0,0,0,.358.653.648.648,0,0,1,.291.536v3.067a.8.8,0,0,1-.449.706,24.831,24.831,0,0,0-4.462,2.826.885.885,0,0,0-.33.692v1.534H438.7v-1.534a.883.883,0,0,0-.33-.692,25.448,25.448,0,0,0-4.456-2.826.788.788,0,0,1-.45-.706v-3.067a.628.628,0,0,1,.292-.536.774.774,0,0,0,.357-.653v-3.179a2.237,2.237,0,0,0-2.251-2.219h-.7A2.238,2.238,0,0,0,428.91,939.518Z" transform="translate(-423 -936)" fill="#1e2859"/>
</svg>
