<svg xmlns="http://www.w3.org/2000/svg" width="22" height="22" viewBox="0 0 22 22">
  <path id="Color_Overlay" data-name="Color Overlay" d="M390.234,956a.367.367,0,0,1-.367-.366v-2.2a.361.361,0,0,1,.217-.333l.884-.392v-5.874a3.3,3.3,0,0,1,3.3-3.3h1.467a3.306,3.306,0,0,1,3.3,3.3v5.874l.883.392a.361.361,0,0,1,.217.333v2.2a.367.367,0,0,1-.367.366Zm.366-2.328v1.595h8.8v-1.595l-2.853-1.268-1.287,1.291a.369.369,0,0,1-.52,0l-1.287-1.291Zm3.693-1.462.707.707.707-.707-.172-1.034a2.471,2.471,0,0,1-1.071,0Zm2.325-.576,1.683.748v-5.548a2.57,2.57,0,0,0-2.567-2.567h-1.467a2.552,2.552,0,0,0-2.295,1.423,2.512,2.512,0,0,0-.272,1.144v5.548l1.683-.748a.35.35,0,0,1,.265-.011l.117-.707a2.569,2.569,0,0,1-1.331-2.248v-2.2a.373.373,0,0,1,.286-.36l3.3-.733a.359.359,0,0,1,.282.055l1.1.734a.367.367,0,0,1,.165.3v2.2a2.569,2.569,0,0,1-1.331,2.248l.117.707a.337.337,0,0,1,.119-.021A.36.36,0,0,1,396.617,951.633Zm-3.451-4.873v1.906a1.833,1.833,0,1,0,3.667,0v-2l-.806-.539Zm7.7,7.406v-.733h1.1V949.4h.733v4.4a.367.367,0,0,1-.367.366Zm-13.2,0a.367.367,0,0,1-.367-.366v-4.4h.733v4.033h1.1v.733Zm14.3-5.5v-.734h.733v.734Zm-14.667,0v-.734h.733v.734Zm8.067-.366v-.733h.733v.733Zm-1.466,0v-.733h.734v.733Zm6.6-1.1a.371.371,0,0,1-.359-.285l-.733-3.3a.377.377,0,0,1,.139-.374l1.32-.99v-1.012a2.571,2.571,0,0,1-1.1-2.1v-1.2a2.558,2.558,0,0,1-1.1-2.1v-1.467a.367.367,0,0,1,.367-.366h4.4A2.569,2.569,0,0,1,406,936.567v.733a1.1,1.1,0,0,1-1.1,1.1v.734a2.57,2.57,0,0,1-1.1,2.1v1.012l1.319.99a.374.374,0,0,1,.139.374l-.734,3.3a.371.371,0,0,1-.359.285Zm1.1-4.766a.369.369,0,0,1-.147.293l-1.275.957.616,2.784h3.08l.617-2.784-1.276-.957a.371.371,0,0,1-.147-.293v-.84a2.575,2.575,0,0,1-1.467,0Zm-1.1-5.272v1.973a1.833,1.833,0,0,0,3.667,0V937.22l-2.523-.631Zm1.188-1.317,2.933.734a.367.367,0,0,1,.279.356v.733a.367.367,0,0,0,.366-.367v-.733a1.833,1.833,0,0,0-1.833-1.833H399.4v1.1a1.825,1.825,0,0,0,.366,1.1.366.366,0,0,1,.2-.323l1.467-.733a.358.358,0,0,1,.253-.03ZM385.834,947.2a.371.371,0,0,1-.359-.285l-.734-3.3a.375.375,0,0,1,.14-.374l1.319-.99v-1.012a2.57,2.57,0,0,1-1.1-2.1v-.95l-.994-.99a.378.378,0,0,1-.106-.26v-.366A2.569,2.569,0,0,1,386.567,934h2.2a2.57,2.57,0,0,1,2.567,2.567v.366a.378.378,0,0,1-.106.26l-.994.99v.95a2.573,2.573,0,0,1-1.1,2.1v1.012l1.319.99a.377.377,0,0,1,.139.374l-.733,3.3a.371.371,0,0,1-.359.285Zm1.1-4.766a.371.371,0,0,1-.147.293l-1.276.957.617,2.784h3.08l.616-2.784-1.275-.957a.371.371,0,0,1-.147-.293v-.84a2.576,2.576,0,0,1-1.467,0Zm-1.1-5.272v1.973a1.833,1.833,0,0,0,3.667,0V937.22l-2.523-.631Zm1.188-1.317,2.933.734a.367.367,0,0,1,.279.356v.216l.366-.366v-.216a1.833,1.833,0,0,0-1.833-1.833h-2.2a1.833,1.833,0,0,0-1.833,1.833v.216l.366.366v-.216a.36.36,0,0,1,.2-.327l1.467-.733a.355.355,0,0,1,.166-.041A.362.362,0,0,1,387.022,935.844ZM398.3,939.5v-.734h.733v.734Zm-5.867,0v-.734h5.134v.734Zm-1.466,0v-.734h.733v.734Zm11.733-1.1v-.734h.733v.734Zm-1.467,0v-.734h.733v.734Zm-13.2,0v-.734h.734v.734Zm-1.466,0v-.734h.733v.734Z" transform="translate(-384 -934)" fill="#1e2859"/>
</svg>
