<svg xmlns="http://www.w3.org/2000/svg" width="19.899" height="19.901" viewBox="0 0 19.899 19.901">
  <path id="Color_Overlay" data-name="Color Overlay" d="M585.7,955.451h-.116a.778.778,0,0,1,0-1.555h3.51a.793.793,0,0,0,.622-.3.817.817,0,0,0,.165-.681v0a8.6,8.6,0,0,0-7.509-6.757l1.484,6.752a.781.781,0,0,1-.21.716l-1.555,1.554a.777.777,0,0,1-.549.229l-.04,0-.039,0a.775.775,0,0,1-.549-.229l-1.555-1.555a.78.78,0,0,1-.21-.716l1.484-6.751a8.59,8.59,0,0,0-7.509,6.756v0a.807.807,0,0,0,.165.68.789.789,0,0,0,.622.3h3.51a.778.778,0,0,1,0,1.555h-3.51l-.131,0a2.342,2.342,0,0,1-1.652-.815c-.014-.017-.03-.033-.043-.05a2.358,2.358,0,0,1-.481-1.978,10.105,10.105,0,0,1,1.474-3.52l.021-.035a10.112,10.112,0,0,1,5.241-3.981l-.025-.02-.094-.072a.216.216,0,0,1-.022-.018c-.032-.025-.064-.051-.1-.078a.156.156,0,0,1-.014-.013l-.1-.086-.011-.01c-.034-.03-.068-.06-.1-.093l-.008-.006-.1-.1-.005-.005c-.033-.033-.068-.068-.1-.1h0l-.1-.109,0,0a5.33,5.33,0,0,1-.62-.849v0q-.077-.13-.146-.265h0q-.035-.068-.068-.135v0c-.022-.046-.043-.091-.063-.137l-.006-.014-.054-.126-.006-.018c-.017-.041-.033-.083-.049-.125l0-.014c-.016-.042-.031-.086-.047-.13,0-.007,0-.014-.007-.022-.014-.041-.027-.082-.04-.123l-.009-.031c-.013-.04-.024-.079-.035-.118l-.009-.036c-.01-.037-.021-.076-.03-.113l-.008-.034c-.009-.04-.018-.078-.025-.118,0-.018-.007-.036-.012-.053-.006-.034-.013-.068-.019-.1,0-.017-.006-.035-.009-.052-.007-.034-.013-.068-.017-.1a.478.478,0,0,1-.008-.054c0-.034-.01-.068-.013-.1l-.008-.079c0-.025-.006-.053-.008-.079s0-.06-.007-.091,0-.045-.005-.068c-.007-.107-.009-.214-.009-.322a5.287,5.287,0,0,1,10.574,0c0,.109,0,.216-.01.322,0,.022,0,.044-.005.068s0,.06-.007.091,0,.053-.008.079-.005.052-.008.078l-.013.1c0,.018-.005.036-.008.055-.005.034-.011.068-.017.1l-.009.052c-.006.034-.013.068-.02.1,0,.018-.007.036-.011.053-.008.04-.018.079-.027.118a.264.264,0,0,1-.008.034c-.009.038-.019.076-.03.114l-.009.035-.034.117-.009.031c-.013.042-.026.083-.04.124a.138.138,0,0,0-.008.022c-.015.044-.031.088-.047.13a.092.092,0,0,0-.005.014l-.049.125-.007.018c-.018.042-.035.084-.054.126l-.005.013c-.021.046-.041.091-.063.136v0c-.021.046-.044.09-.067.135h0c-.046.091-.095.179-.145.266h0a5.371,5.371,0,0,1-.619.85l0,0c-.032.037-.067.072-.1.109h0l-.1.1-.005.006-.1.1-.009.008-.1.092-.012.01c-.032.029-.065.058-.1.086l-.015.013c-.031.028-.063.052-.1.079l-.022.017-.094.072-.025.02a10.11,10.11,0,0,1,5.24,3.981c.008.012.013.023.021.034a10.077,10.077,0,0,1,1.475,3.52,2.364,2.364,0,0,1-.481,1.98c-.013.017-.028.033-.043.05a2.347,2.347,0,0,1-1.651.815c-.044,0-.088,0-.133,0Zm-4.863-2.621.665.665.665-.665L581.5,949.8Zm.848-8.267a3.715,3.715,0,0,0,1.462-.379h0c.026-.013.051-.025.076-.039l0,0,.073-.04,0,0,.072-.041,0,0c.024-.013.049-.028.071-.043l0,0,.067-.043.007,0,.066-.044.006-.005.065-.044.006-.005.067-.049,0,0,.065-.049,0,0,.062-.05.005,0,.058-.05.008-.005c.02-.016.038-.034.058-.05l.007-.007c.019-.016.036-.033.054-.05l.01-.008c.018-.016.034-.033.051-.05l.012-.011c.017-.016.034-.034.05-.052l.01-.01c.017-.016.033-.034.049-.051l.011-.012.048-.053.01-.012c.016-.017.031-.036.046-.053l.01-.014c.014-.017.029-.034.042-.052l.013-.015c.013-.016.027-.034.041-.052l.013-.015.039-.053.013-.017.038-.056.011-.016.037-.056.012-.017c.013-.018.023-.036.035-.054a.156.156,0,0,0,.013-.02c.011-.016.022-.034.031-.051l.014-.023c.009-.017.018-.034.028-.051a.279.279,0,0,0,.015-.025l.029-.053.012-.023c.011-.019.02-.038.029-.056l.012-.023c.009-.017.017-.036.026-.053l.012-.026c.009-.018.017-.036.025-.055l.011-.025c.008-.017.015-.035.023-.052l.012-.029c.009-.019.016-.039.024-.059l.009-.023c.007-.017.013-.036.02-.055a.253.253,0,0,0,.011-.028c.007-.018.013-.037.02-.056s.006-.019.009-.028l.019-.058.008-.028c.006-.02.012-.04.017-.06l.007-.025c0-.016.009-.032.013-.049l.01-.037c0-.017.009-.036.013-.054s.006-.022.008-.033.009-.04.013-.06,0-.018.007-.027.007-.038.01-.058,0-.022.006-.032.007-.047.012-.07l0-.019c0-.019.005-.037.008-.055l0-.036,0-.034c0-.019,0-.038.006-.057s0-.027,0-.04l0-.051c0-.018,0-.037,0-.054l0-.039c0-.06,0-.123,0-.185a3.731,3.731,0,0,0-7.463,0c0,.062,0,.125,0,.186l0,.039c0,.017,0,.035,0,.054l0,.05c0,.014,0,.027,0,.04s0,.039.006.059l0,.032,0,.037c0,.018,0,.035.008.054l0,.02.012.07c0,.01,0,.022.006.032s.006.038.01.057,0,.018.005.027.008.04.014.06.005.022.007.033.008.037.013.054a.357.357,0,0,0,.01.037c0,.017.008.033.013.049l.007.025c.006.021.012.041.018.06l.008.028.018.058.01.028c.006.019.013.038.018.056l.012.028c.007.019.013.038.02.056l.009.023c.009.019.016.039.023.059l.013.028.022.053.012.026c.009.018.016.036.025.053l.012.026.026.053.012.023.028.056.013.023c.01.018.02.035.029.053s.01.016.014.025.02.034.03.05l.014.024c.01.017.02.034.031.051l.013.02.034.054.013.017c.011.018.023.037.036.055l.012.017c.013.018.025.037.039.055l.013.017.039.053.013.016c.013.017.027.035.039.052l.013.015c.014.018.027.035.042.052l.01.014c.015.018.03.036.046.053l.01.012.049.053.01.012.049.051.01.01c.017.018.034.036.051.052l.012.011.051.05.009.008c.017.017.035.034.054.05l.007.007.058.05.008.005c.019.017.039.034.059.05l0,0,.062.05,0,0,.065.049,0,0,.066.049.006.005.066.044.005.005.067.044.006,0c.023.014.045.03.068.043l0,0c.023.015.047.03.071.043l0,0,.073.041,0,0,.074.04,0,0,.076.039h0a3.7,3.7,0,0,0,1.462.379l.185,0Z" transform="translate(-571.551 -935.55)" fill="#1e2859"/>
</svg>
