<svg xmlns="http://www.w3.org/2000/svg" width="25" height="20.001" viewBox="0 0 25 20.001">
  <path id="Color_Overlay" data-name="Color Overlay" d="M363.083,955v-4.8h-2.917v4.4a.409.409,0,0,1-.417.4h-2.916a.409.409,0,0,1-.417-.4v-6a1.93,1.93,0,0,1,.427-1.2h-2.928v6.8h1.667v.8h-4.167v-.8h1.667v-6.8h-2.918a1.942,1.942,0,0,1,.418,1.2v6a.409.409,0,0,1-.417.4H347.25a.409.409,0,0,1-.417-.4v-4.4h-2.916V955h-.833v-4.8a2.045,2.045,0,0,1-2.083-2v-5.6a2,2,0,0,1,1.319-1.857A3.151,3.151,0,0,1,341,938.2a3.336,3.336,0,0,1,6.666,0,3.153,3.153,0,0,1-1.319,2.543,2,2,0,0,1,1.319,1.857v1.6H351a.408.408,0,0,1,.417.4v2h1.027l2.377-3.421.693.443-2.068,2.978h7.138v-2.8h-3.333a.423.423,0,0,1-.3-.117l-3.749-3.6a.388.388,0,0,1,0-.565l1.666-1.6a.429.429,0,0,1,.59,0l2.794,2.683h2.213a3.141,3.141,0,0,1-1.136-2.4,3.336,3.336,0,0,1,6.667,0,3.153,3.153,0,0,1-1.319,2.543A2,2,0,0,1,366,942.6v5.6a2.046,2.046,0,0,1-2.083,2V955Zm-5.833-6.4v5.6h2.083v-4.4a.409.409,0,0,1,.417-.4h4.167a1.227,1.227,0,0,0,1.25-1.2v-5.6a1.227,1.227,0,0,0-1.25-1.2h-5.834a.423.423,0,0,1-.294-.118l-2.622-2.517L354.09,939.8l3.333,3.2H361a.409.409,0,0,1,.417.4V947a.408.408,0,0,1-.417.4h-2.5A1.227,1.227,0,0,0,357.251,948.6Zm-15.417-6v5.6a1.227,1.227,0,0,0,1.25,1.2h4.166a.409.409,0,0,1,.417.4v4.4h2.083v-5.6a1.227,1.227,0,0,0-1.25-1.2H344.75a.408.408,0,0,1-.417-.4v-3.6h.833v3.2h5.416V945H347.25a.409.409,0,0,1-.417-.4v-2a1.227,1.227,0,0,0-1.249-1.2h-2.5A1.227,1.227,0,0,0,341.833,942.6Zm18.333-4.4a2.5,2.5,0,1,0,2.5-2.4A2.454,2.454,0,0,0,360.167,938.2Zm-18.333,0a2.5,2.5,0,1,0,2.5-2.4A2.454,2.454,0,0,0,341.833,938.2Z" transform="translate(-341 -934.999)" fill="#1e2859"/>
</svg>
