<svg xmlns="http://www.w3.org/2000/svg" width="19" height="19" viewBox="0 0 19 19">
  <path id="Color_Overlay" data-name="Color Overlay" d="M967.884,954a1.7,1.7,0,0,1-1.731-1.669V950.4h-.422a1.7,1.7,0,0,1-1.732-1.67v-6.68a1.7,1.7,0,0,1,1.732-1.669h.422V936.67A1.7,1.7,0,0,1,967.884,935h7.681a2.947,2.947,0,0,1,2.093.869l2.4,2.439a2.716,2.716,0,0,1,.792,1.914v.159h.424a1.7,1.7,0,0,1,1.73,1.669v6.68a1.7,1.7,0,0,1-1.73,1.67h-.424v1.93A1.7,1.7,0,0,1,979.115,954Zm-.577-1.669a.567.567,0,0,0,.577.556h11.231a.567.567,0,0,0,.577-.556V950.4H967.307Zm-2.153-10.28v6.68a.568.568,0,0,0,.577.557H981.27a.568.568,0,0,0,.577-.557v-6.68a.568.568,0,0,0-.577-.556H965.732A.567.567,0,0,0,965.155,942.051Zm2.153-5.381v3.712h12.385v-.159a1.635,1.635,0,0,0-.474-1.148l-2.4-2.439a1.767,1.767,0,0,0-1.255-.521h-7.681A.567.567,0,0,0,967.307,936.67ZM977.4,947.777a1.658,1.658,0,0,1-.577-.539,1.192,1.192,0,0,1-.222-.656.43.43,0,0,1,.134-.317.459.459,0,0,1,.338-.131.408.408,0,0,1,.282.1.807.807,0,0,1,.2.3,2.021,2.021,0,0,0,.215.4.859.859,0,0,0,.325.265,1.225,1.225,0,0,0,.549.105,1.275,1.275,0,0,0,.761-.211.63.63,0,0,0,.293-.527.543.543,0,0,0-.158-.4,1.016,1.016,0,0,0-.408-.239q-.25-.082-.669-.175a5.1,5.1,0,0,1-.94-.3,1.515,1.515,0,0,1-.6-.463,1.166,1.166,0,0,1-.222-.727,1.226,1.226,0,0,1,.234-.737,1.48,1.48,0,0,1,.679-.494,2.849,2.849,0,0,1,1.043-.174,2.668,2.668,0,0,1,.829.115,1.762,1.762,0,0,1,.581.305,1.25,1.25,0,0,1,.337.4.9.9,0,0,1,.107.408.476.476,0,0,1-.134.327.431.431,0,0,1-.332.146.4.4,0,0,1-.275-.087,1.243,1.243,0,0,1-.2-.286,1.318,1.318,0,0,0-.34-.444,1.025,1.025,0,0,0-.639-.159,1.136,1.136,0,0,0-.659.173.5.5,0,0,0-.25.417.412.412,0,0,0,.085.26.7.7,0,0,0,.236.188,1.538,1.538,0,0,0,.3.123q.153.045.5.13a8.175,8.175,0,0,1,.8.219,2.447,2.447,0,0,1,.607.292,1.206,1.206,0,0,1,.39.433,1.336,1.336,0,0,1,.14.643,1.438,1.438,0,0,1-.243.818,1.6,1.6,0,0,1-.712.569,2.748,2.748,0,0,1-1.111.205A2.57,2.57,0,0,1,977.4,947.777Zm-7.747.22a.532.532,0,0,1-.167-.148c-.042-.059-.121-.175-.238-.346l-.916-1.391-.972,1.431c-.076.114-.129.194-.161.24a.867.867,0,0,1-.116.133.511.511,0,0,1-.158.1.579.579,0,0,1-.217.038.453.453,0,0,1-.318-.113.416.416,0,0,1-.127-.328,1.162,1.162,0,0,1,.259-.62l1.165-1.64-.98-1.459a2.933,2.933,0,0,1-.208-.365.712.712,0,0,1-.068-.293.335.335,0,0,1,.132-.258.48.48,0,0,1,.325-.115.463.463,0,0,1,.343.125,3.108,3.108,0,0,1,.338.464l.781,1.219.834-1.219.176-.264a1.458,1.458,0,0,1,.14-.182.459.459,0,0,1,.151-.108.5.5,0,0,1,.193-.036.461.461,0,0,1,.325.115.356.356,0,0,1,.127.272,1.247,1.247,0,0,1-.273.624L969,945.356l1.1,1.64a2.782,2.782,0,0,1,.216.358.615.615,0,0,1,.068.269.408.408,0,0,1-.06.219.418.418,0,0,1-.17.158.525.525,0,0,1-.249.058A.5.5,0,0,1,969.653,948Zm2.913-.025a.691.691,0,0,1-.495-.148.638.638,0,0,1-.151-.476v-3.866a.657.657,0,0,1,.144-.462.49.49,0,0,1,.377-.155.51.51,0,0,1,.385.153.645.645,0,0,1,.148.464v3.654h2.137a.581.581,0,0,1,.393.121.383.383,0,0,1,.137.3.372.372,0,0,1-.136.3.592.592,0,0,1-.394.115Z" transform="translate(-964 -935)" fill="#018b4e"/>
</svg>
