<svg xmlns="http://www.w3.org/2000/svg" width="17" height="17" viewBox="0 0 17 17">
  <g id="Vector_Smart_Object" data-name="Vector Smart Object" transform="translate(-282 -734)">
    <g id="Vector_Smart_Object-2" data-name="Vector Smart Object" transform="translate(282 734)">
      <g id="Group_130" data-name="Group 130">
        <g id="Group_127" data-name="Group 127">
          <g id="Group_126" data-name="Group 126">
            <path id="Path_245" data-name="Path 245" d="M15.833,1.167a3.984,3.984,0,0,0-5.635,0L6.868,4.5a4.022,4.022,0,0,0,0,5.635,3.792,3.792,0,0,0,.8.608l.608-.608a1.369,1.369,0,0,0,.251-1.2,1.923,1.923,0,0,1-.251-.208,2.014,2.014,0,0,1,0-2.817l3.33-3.33a1.992,1.992,0,0,1,2.817,2.817l-2.2,2.2a5.734,5.734,0,0,1,.249,2.563c.01-.009.021-.016.031-.025l3.33-3.33A3.984,3.984,0,0,0,15.833,1.167Z"/>
          </g>
        </g>
        <g id="Group_129" data-name="Group 129">
          <g id="Group_128" data-name="Group 128">
            <path id="Path_246" data-name="Path 246" d="M10.39,6.61A3.793,3.793,0,0,0,9.589,6l-.608.608a1.368,1.368,0,0,0-.251,1.2,1.919,1.919,0,0,1,.251.208,2.014,2.014,0,0,1,0,2.817L5.393,14.424a1.992,1.992,0,0,1-2.817-2.817L5.035,9.148a5.733,5.733,0,0,1-.249-2.563c-.01.009-.021.016-.031.025L1.167,10.2A3.984,3.984,0,0,0,6.8,15.833l3.588-3.588A4.02,4.02,0,0,0,10.39,6.61Z"/>
          </g>
        </g>
      </g>
    </g>
    <path id="Color_Overlay" data-name="Color Overlay" d="M283.167,749.833a3.984,3.984,0,0,1,0-5.635l3.587-3.587c.01-.01.022-.016.032-.025a5.736,5.736,0,0,0,.248,2.562l-2.459,2.46a1.992,1.992,0,0,0,2.817,2.817l3.588-3.588a2.013,2.013,0,0,0,0-2.817,1.877,1.877,0,0,0-.251-.208,1.367,1.367,0,0,1,.251-1.2l.608-.608a3.76,3.76,0,0,1,.8.608,4.019,4.019,0,0,1,0,5.634l-3.588,3.588a3.983,3.983,0,0,1-5.634,0Zm5.7-5.7a4.023,4.023,0,0,1,0-5.635l3.33-3.33a3.984,3.984,0,0,1,5.635,5.635l-3.33,3.33c-.009.009-.021.015-.031.024a5.731,5.731,0,0,0-.249-2.562l2.2-2.2a1.992,1.992,0,0,0-2.817-2.817l-3.33,3.33a2.012,2.012,0,0,0,0,2.817,1.819,1.819,0,0,0,.251.208,1.372,1.372,0,0,1-.251,1.2l-.608.607A3.831,3.831,0,0,1,288.868,744.133Z" fill="#bcbcbc"/>
  </g>
</svg>
